<mxfile host="app.diagrams.net" modified="2024-07-11T02:43:01.889Z" agent="Mozilla/5.0 (Macintosh; Intel Mac OS X 10_15_7) AppleWebKit/537.36 (KHTML, like Gecko) Chrome/126.0.0.0 Safari/537.36 Edg/126.0.0.0" version="24.6.4" etag="CxJj7t1l5hg-pAVBZxOR" type="github">
  <diagram name="Trang-1" id="3eVH9wB3ARJZb3_v9nS9">
    <mxGraphModel>
      <root>
        <mxCell id="0" />
        <mxCell id="1" parent="0" />
      </root>
    </mxGraphModel>
  </diagram>
</mxfile>
